<svg xmlns="http://www.w3.org/2000/svg" viewBox="0 0 22 14"><path d="M21.1 7.4l-2.6-2.6-2 2L14.7 5h-2.1c-1-2.8-3.8-4.4-6.8-3.9-2.3.4-4.2 2.3-4.7 4.6-.4 1.8.1 3.7 1.2 5.1C3.5 12.2 5.2 13 7 13c2.2 0 4.1-1.1 5.2-3h7.9c.6 0 1.1-.4 1.4-.9.2-.6.1-1.2-.4-1.7zm-.6 1.3c0 .1-.2.3-.5.3h-8.5l-.1.3C10.6 11 8.9 12 7 12c-1.5 0-2.9-.7-3.9-1.8-1-1.2-1.3-2.7-1-4.2.4-2 2-3.5 3.9-3.9.4-.1.7-.1 1-.1 2.2 0 4.2 1.4 4.8 3.6l.1.4h2.4l2.2 2.2 2-2 1.9 1.9c.3.3.2.5.1.6zm-15-4.2C4.1 4.5 3 5.6 3 7s1.1 2.5 2.5 2.5S8 8.4 8 7 6.9 4.5 5.5 4.5zm0 4C4.7 8.5 4 7.8 4 7s.7-1.5 1.5-1.5S7 6.2 7 7s-.7 1.5-1.5 1.5z"/></svg>